<?xml version="1.0" encoding="iso-8859-1"?>
<!-- Generator: Adobe Illustrator 19.0.0, SVG Export Plug-In . SVG Version: 6.00 Build 0)  -->
<svg version="1.1" id="Capa_1" xmlns="http://www.w3.org/2000/svg" xmlns:xlink="http://www.w3.org/1999/xlink" x="0px" y="0px"
	 viewBox="0 0 512 512" style="enable-background:new 0 0 512 512;" xml:space="preserve" width="34px" height="34px">
<path style="fill:#FD3C65;" d="M377.253,30.904h-1.202c-49.818,0-92.441,28.813-120.051,81.035
	c-27.61-52.222-70.233-81.035-120.051-81.035h-1.202C63.62,31.505,3.793,92.429,0.191,169.563
	c-4.503,94.539,70.932,158.167,183.777,254.207c19.509,16.807,40.216,34.516,62.124,53.724c2.704,2.4,6.305,3.602,9.906,3.602
	s7.203-1.202,9.906-3.602c21.908-19.208,42.616-36.917,62.124-53.724c112.845-96.04,188.28-159.668,183.777-254.207
	C508.207,92.429,448.379,31.505,377.253,30.904z"/>
<path style="fill:#FD003A;" d="M511.809,169.563c4.503,94.539-70.932,158.168-183.777,254.207
	c-19.509,16.807-40.216,34.516-62.124,53.724c-2.704,2.4-6.305,3.602-9.906,3.602V111.939
	c27.61-52.222,70.233-81.035,120.051-81.035h1.202C448.379,31.505,508.207,92.429,511.809,169.563z"/>
<path style="fill:#CAE8F9;" d="M316.026,242.493v-3.602c0-31.814-27.013-57.925-60.026-57.925s-60.026,26.111-60.026,57.925v3.602
	c0,15.307,6.602,30.313,17.711,41.118l20.707,19.509l-33.618,32.114c-6.002,5.7-6.302,15.305-0.597,21.008
	c5.704,6.304,15.307,6.304,21.011,0.601l34.812-33.013l34.812,33.013c6.005,5.702,15.307,5.402,21.011-0.601
	c5.704-5.702,5.404-15.306-0.597-21.008l-33.618-32.114l20.707-19.509C309.424,272.807,316.026,257.801,316.026,242.493z
	 M286.013,242.493c0,7.203-3,14.105-8.405,19.509L256,282.411l-21.608-20.409c-5.404-5.404-8.405-12.306-8.405-19.509v-3.602
	c0-15.307,13.505-27.912,30.013-27.912c16.508,0,30.013,12.604,30.013,27.912V242.493z"/>
<path style="fill:#B7E0F6;" d="M298.315,283.611l-20.707,19.509l33.618,32.114c6.002,5.7,6.302,15.305,0.597,21.008
	c-5.704,6.003-15.006,6.304-21.011,0.601l-34.812-33.013v-41.418l21.608-20.409c5.404-5.404,8.405-12.306,8.405-19.509v-3.602
	c0-15.307-13.505-27.912-30.013-27.912v-30.013c33.013,0,60.026,26.111,60.026,57.925v3.602
	C316.026,257.801,309.424,272.807,298.315,283.611z"/>
<g>
</g>
<g>
</g>
<g>
</g>
<g>
</g>
<g>
</g>
<g>
</g>
<g>
</g>
<g>
</g>
<g>
</g>
<g>
</g>
<g>
</g>
<g>
</g>
<g>
</g>
<g>
</g>
<g>
</g>
</svg>
