<svg height="478pt" viewBox="-1 0 478 478.38302" width="478pt" xmlns="http://www.w3.org/2000/svg"><path d="m417.589844 182.382812c-57.125-55.882812-145.726563-63.75-211.804688-18.808593-66.078125 44.945312-91.3125 130.238281-60.324218 203.902343 30.984374 73.660157 109.605468 115.269532 187.941406 99.460938 78.332031-15.804688 134.667968-84.640625 134.667968-164.554688.066407-45.175781-18.140624-88.457031-50.480468-120zm0 0" fill="#bddbff"/><path d="m217.492188 29.644531-16.972657-16.964843c-6.25-6.246094-16.378906-6.246094-22.625 0l-39.601562 39.597656-33.933594 33.9375-39.601563 39.597656-39.601562-28.285156-16.964844 16.976562 62.222656 62.222656c3.125 3.121094 8.1875 3.121094 11.3125 0l135.765626-135.769531c3.125-3.121093 3.125-8.1875 0-11.3125zm0 0" fill="#bddbff"/><path d="m54.414062 23.023438-17.945312 17.933593 67.890625 45.257813 33.933594-33.9375zm0 0" fill="#bddbff"/><g fill="#3d9ae2"><path d="m423.199219 176.671875c-32.8125-32.335937-77.0625-50.410156-123.128907-50.289063-5.792968 0-11.539062.265626-17.242187.800782-93.605469 8.949218-163.640625 89.90625-159.03125 183.828125s82.238281 167.628906 176.273437 167.371093c5.792969 0 11.539063-.265624 17.238282-.800781 68.046875-6.710937 126.050781-52.222656 148.75-116.722656 22.699218-64.5 5.984375-136.308594-42.859375-184.15625zm-6.136719 234.511719c-9.984375-8.992188-20.96875-16.804688-32.738281-23.289063 7.234375-25.21875 11.109375-51.28125 11.53125-77.511719h63.824219c-1.75 37.601563-16.863282 73.347657-42.617188 100.800782zm-14.257812 13.648437c-1.714844 1.449219-3.460938 2.855469-5.230469 4.222657-2.214844 1.710937-4.472657 3.351562-6.769531 4.945312-1.824219 1.261719-3.65625 2.511719-5.527344 3.695312-2.398438 1.488282-4.800782 2.886719-7.199219 4.246094-1.921875 1.074219-3.832031 2.152344-5.785156 3.144532-2.503907 1.273437-5.054688 2.402343-7.613281 3.550781-1.976563.875-3.945313 1.777343-5.953126 2.570312-2.65625 1.046875-5.367187 1.941407-8.082031 2.847657-.671875.222656-1.34375.449218-2.015625.65625 13.433594-14.957032 23.789063-32.414063 30.472656-51.375 9.492188 5.375 18.40625 11.710937 26.609376 18.902343-.96875.878907-1.914063 1.785157-2.90625 2.617188zm-161.40625 26.398438c-2-.800781-3.945313-1.679688-5.90625-2.542969-2.582032-1.144531-5.160157-2.304688-7.679688-3.585938-1.925781-.976562-3.816406-2.046874-5.710938-3.101562-2.457031-1.378906-4.886718-2.792969-7.273437-4.296875-1.847656-1.167969-3.644531-2.402344-5.445313-3.640625-2.332031-1.601562-4.621093-3.273438-6.863281-5.015625-1.742187-1.34375-3.453125-2.730469-5.144531-4.152344-1-.839843-1.960938-1.753906-2.953125-2.625 8.199219-7.191406 17.117187-13.527343 26.609375-18.902343 6.683594 18.960937 17.039062 36.417968 30.46875 51.375l-1.972656-.640626c-2.730469-.917968-5.457032-1.824218-8.128906-2.878906zm-58.320313-257.648438c9.984375 8.992188 20.96875 16.804688 32.734375 23.289063-7.230469 25.21875-11.105469 51.28125-11.527344 77.511718h-63.824218c1.75-37.601562 16.859374-73.347656 42.617187-100.800781zm14.253906-13.648437c1.71875-1.445313 3.464844-2.851563 5.234375-4.222656 2.214844-1.710938 4.472656-3.351563 6.765625-4.945313 1.824219-1.261719 3.65625-2.511719 5.53125-3.695313 2.359375-1.488281 4.796875-2.886718 7.199219-4.246093 1.917969-1.074219 3.832031-2.152344 5.785156-3.144531 2.503906-1.273438 5.054688-2.402344 7.613282-3.554688 1.976562-.871094 3.945312-1.773438 5.953124-2.566406 2.65625-1.046875 5.367188-1.945313 8.078126-2.847656.671874-.222657 1.34375-.449219 2.019531-.65625-13.433594 14.957031-23.789063 32.414062-30.472657 51.375-9.492187-5.375-18.410156-11.710938-26.609374-18.902344.96875-.882813 1.914062-1.746094 2.902343-2.617188zm161.410157-26.398438c2 .800782 3.945312 1.679688 5.902343 2.542969 2.585938 1.144531 5.160157 2.304687 7.679688 3.585937 1.929687.972657 3.824219 2.046876 5.714843 3.101563 2.453126 1.375 4.886719 2.792969 7.269532 4.296875 1.839844 1.167969 3.65625 2.398438 5.457031 3.640625 2.320313 1.597656 4.609375 3.277344 6.855469 5.015625 1.734375 1.34375 3.449218 2.726562 5.144531 4.152344 1 .839844 1.960937 1.75 2.953125 2.625-8.203125 7.191406-17.117188 13.527344-26.609375 18.902344-6.683594-18.960938-17.039063-36.417969-30.472656-51.375l1.976562.640624c2.730469.917969 5.457031 1.824219 8.128907 2.917969zm-66.671876 68.488282c-19.417968-.9375-38.5-5.421876-56.296874-13.242188 13.183593-35.757812 33.464843-60.800781 56.296874-65.597656zm0 16v56.359374h-71.792968c.511718-23.773437 4.023437-47.386718 10.457031-70.28125 19.4375 8.296876 40.21875 13.003907 61.335937 13.898438zm0 72.359374v56.382813c-21.117187.894531-41.898437 5.601563-61.335937 13.898437-6.433594-22.894531-9.945313-46.507812-10.457031-70.28125zm0 72.359376v78.839843c-22.832031-4.800781-43.113281-29.816406-56.296874-65.601562 17.796874-7.816407 36.878906-12.304688 56.296874-13.238281zm16 0c19.417969.933593 38.496094 5.421874 56.296876 13.238281-13.183594 35.761719-33.464844 60.800781-56.296876 65.601562zm0-16v-56.359376h71.792969c-.511719 23.773438-4.023437 47.386719-10.457031 70.28125-19.441406-8.296874-40.21875-13.003906-61.335938-13.898437zm0-72.359376v-56.382812c21.117188-.894531 41.894532-5.601562 61.335938-13.898438 6.433594 22.894532 9.945312 46.507813 10.457031 70.28125zm0-72.359374v-78.800782c22.832032 4.800782 43.113282 29.816406 56.296876 65.601563-17.800782 7.800781-36.882813 12.277343-56.296876 13.199219zm-103.785156 88.359374c.417969 26.238282 4.296875 52.308594 11.527344 77.535157-11.765625 6.476562-22.75 14.28125-32.734375 23.265625-25.757813-27.453125-40.871094-63.199219-42.617187-100.800782zm191.570313-16c-.421875-26.238281-4.296875-52.308593-11.53125-77.535156 11.769531-6.476562 22.75-14.285156 32.738281-23.265625 25.757812 27.453125 40.871094 63.195313 42.617188 100.800781zm0 0"/><path d="m76.070312 187.0625c4.242188.007812 8.3125-1.675781 11.3125-4.679688l135.765626-135.769531c6.246093-6.246093 6.246093-16.375 0-22.621093l-16.964844-16.976563c-9.382813-9.355469-24.5625-9.355469-33.945313 0l-36.046875 36.046875-79.144531-27.601562c-2.898437-1.007813-6.121094-.265626-8.289063 1.90625l-17.945312 17.933593c-1.6875 1.703125-2.527344 4.070313-2.285156 6.453125.242187 2.386719 1.542968 4.535156 3.542968 5.859375l59.765626 39.839844-27.902344 27.914063-34.128906-24.34375c-3.179688-2.273438-7.539063-1.910157-10.304688.855468l-16.964844 16.96875c-3.125 3.121094-3.125 8.1875 0 11.3125l62.222656 62.222656c2.996094 3.003907 7.070313 4.6875 11.3125 4.679688zm-27.046874-147.34375 7.503906-7.496094 67.09375 23.40625-20.289063 20.289063zm-23 68.261719 34.085937 24.347656c3.183594 2.269531 7.539063 1.90625 10.304687-.859375l113.136719-113.132812c1.5-1.503907 3.535157-2.347657 5.660157-2.347657 2.121093 0 4.160156.84375 5.660156 2.347657l16.964844 16.964843-135.765626 135.769531-56.570312-56.566406zm0 0"/><path d="m172.238281 40.957031 11.316407-11.308593 11.308593 11.316406-11.316406 11.308594zm0 0"/><path d="m333.140625 45.511719c-5.144531-2-10.398437-3.824219-15.671875-5.433594l-4.671875 15.304687c4.882813 1.496094 9.777344 3.199219 14.5625 5.039063zm0 0"/><path d="m268.628906 30.980469c-5.457031-.398438-11.03125-.597657-16.558594-.597657v16c5.144532 0 10.320313.183594 15.390626.558594zm0 0"/><path d="m363.078125 59.773438c-4.800781-2.742188-9.761719-5.335938-14.695313-7.6875l-6.890624 14.449218c4.59375 2.183594 9.175781 4.582032 13.648437 7.136719zm0 0"/><path d="m301.4375 35.839844c-5.367188-1.210938-10.855469-2.257813-16.3125-3.058594l-2.34375 15.824219c5.074219.753906 10.160156 1.703125 15.136719 2.816406zm0 0"/><path d="m422.8125 135.558594 13.121094-9.175782c-3.152344-4.519531-6.511719-8.976562-9.976563-13.242187l-12.414062 10.097656c3.222656 3.945313 6.34375 8.121094 9.269531 12.320313zm0 0"/><path d="m390.566406 78.328125c-4.304687-3.394531-8.800781-6.691406-13.410156-9.785156l-8.933594 13.261719c4.261719 2.882812 8.4375 5.929687 12.421875 9.074218zm0 0"/><path d="m450.078125 190.527344 15.199219-4.898438c-1.664063-5.183594-3.566406-10.398437-5.664063-15.582031l-14.824219 6.015625c1.976563 4.792969 3.753907 9.65625 5.289063 14.464844zm0 0"/><path d="m438.511719 162.046875 14.324219-7.128906c-2.46875-4.960938-5.132813-9.863281-7.925782-14.566407l-13.761718 8.152344c2.59375 4.375 5.074218 8.925782 7.363281 13.542969zm0 0"/><path d="m415.023438 100.6875c-3.753907-4-7.730469-7.898438-11.816407-11.640625l-10.800781 11.808594c3.808594 3.480469 7.496094 7.109375 10.976562 10.808593zm0 0"/><path d="m112.773438 429.8125c4.3125 3.433594 8.800781 6.738281 13.359374 9.84375l9-13.234375c-4.230468-2.871094-8.398437-5.945313-12.40625-9.128906zm0 0"/><path d="m170.046875 462.886719c5.144531 2.015625 10.398437 3.871093 15.65625 5.496093l4.734375-15.28125c-4.871094-1.511718-9.769531-3.199218-14.535156-5.101562zm0 0"/><path d="m53.765625 317.335938-15.246094 4.796874c1.652344 5.210938 3.535157 10.464844 5.597657 15.609376l14.839843-5.953126c-1.910156-4.742187-3.6875-9.613281-5.191406-14.453124zm0 0"/><path d="m80.8125 372.445312-13.191406 9.074219c3.089844 4.480469 6.402344 8.949219 9.9375 13.292969l12.445312-10.03125c-3.246094-4-6.34375-8.183594-9.191406-12.335938zm0 0"/><path d="m65.222656 345.878906-14.359375 7.0625c2.453125 5 5.09375 9.914063 7.855469 14.609375l13.800781-8.105469c-2.5625-4.351562-5.007812-8.917968-7.296875-13.566406zm0 0"/><path d="m88.421875 407.335938c3.785156 4.046874 7.742187 8 11.769531 11.6875l10.839844-11.761719c-3.738281-3.4375-7.410156-7.09375-10.921875-10.855469zm0 0"/><path d="m44.070312 256.71875-16 .160156c.054688 5.480469.320313 11.046875.800782 16.558594l15.933594-1.34375c-.421876-5.121094-.664063-10.296875-.734376-15.375zm0 0"/><path d="m46.679688 287.390625-15.792969 2.519531c.855469 5.398438 1.933593 10.871094 3.199219 16.273438l15.574218-3.679688c-1.175781-5.007812-2.183594-10.097656-2.980468-15.113281zm0 0"/><path d="m28.5 240.300781 16 1c.320312-5.078125.800781-10.238281 1.523438-15.34375l-15.859376-2.144531c-.773437 5.480469-1.292968 11.027344-1.664062 16.488281zm0 0"/><path d="m52.148438 196.78125-15.375-4.414062c-1.441407 5-2.710938 10.078124-3.785157 15.09375l15.65625 3.335937c1.007813-4.734375 2.175781-9.40625 3.503907-14.015625zm0 0"/><path d="m140.183594 448.476562c4.75 2.746094 9.695312 5.363282 14.664062 7.753907l6.949219-14.398438c-4.613281-2.234375-9.199219-4.65625-13.597656-7.203125zm0 0"/></g></svg>